<svg xmlns="http://www.w3.org/2000/svg" viewBox="0 0 266.41 241.52"><defs><style>.cls-1{fill:#f37a5c;}.cls-2{fill:#5779bb;}</style></defs><g id="레이어_2" data-name="레이어 2"><g id="레이어_1-2" data-name="레이어 1"><path class="cls-1" d="M110.72,187.87c0,30.23-24.79,53.65-55.29,53.65S0,218.1,0,187.87s24.79-53.79,55.43-53.79S110.72,157.77,110.72,187.87Zm-26.29,0c0-17-12.8-30.24-29-30.24s-29,13.21-29,30.24,12.8,30.23,29,30.23S84.43,205,84.43,187.87Z"/><path class="cls-1" d="M148.71,195.36v44.12H122.57V136h26.14V181.6L187,136h32.41l-44,51.75,46.31,51.75H187.93Z"/><circle class="cls-2" cx="248.11" cy="222.53" r="18.31"/><path class="cls-2" d="M10.9,121V17.53H37.05V121Z"/><path class="cls-2" d="M215.52,121h-25.6V65.19l-26,29h-8.71l-26-29V121h-25.6V17.53h16.34l39.63,44.8,39.63-44.8h16.34Z"/><circle class="cls-1" cx="70.25" cy="18.31" r="18.31"/></g></g></svg>