<?xml version="1.0" encoding="UTF-8" standalone="no"?>
<svg
   id="Layer_1"
   data-name="Layer 1"
   viewBox="0 0 122.88 122.88"
   version="1.1"
   xmlns="http://www.w3.org/2000/svg"
   xmlns:svg="http://www.w3.org/2000/svg"
   xmlns:rdf="http://www.w3.org/1999/02/22-rdf-syntax-ns#"
   xmlns:cc="http://creativecommons.org/ns#"
   xmlns:dc="http://purl.org/dc/elements/1.1/">
  <defs
     id="defs1175">
    <style
       id="style1173">.cls-1{fill-rule:evenodd;}</style>
  </defs>
  <title
     id="title1177">back</title>
  <g
     id="g1155"
     transform="matrix(0.98801031,0,0,0.99026282,6.3740246,0.77822)">
    <path
       d="m 82.42,73.514 c 5.941,0 11.33,2.418 15.232,6.305 3.903,3.904 6.306,9.277 6.306,15.234 0,4.346 -1.296,8.406 -3.509,11.787 l 9.324,10.162 -6.432,5.877 -8.992,-9.891 c -3.413,2.275 -7.521,3.602 -11.93,3.602 -5.941,0 -11.33,-2.416 -15.233,-6.305 -3.903,-3.902 -6.306,-9.275 -6.306,-15.232 0,-5.941 2.418,-11.33 6.306,-15.234 3.904,-3.903 9.276,-6.305 15.234,-6.305 z m -53.571,5.992 c -1.588,0 -2.876,-1.318 -2.876,-2.906 0,-1.617 1.289,-2.904 2.876,-2.904 h 18.753 c 1.588,0 2.876,1.316 2.876,2.904 0,1.619 -1.288,2.906 -2.876,2.906 z m 0,-40.861 c -1.588,0 -2.876,-1.288 -2.876,-2.876 0,-1.587 1.289,-2.875 2.876,-2.875 h 38.045 c 1.588,0 2.876,1.288 2.876,2.875 0,1.588 -1.288,2.876 -2.876,2.876 z m 22.606,67.943 c 1.588,0 2.876,1.287 2.876,2.875 0,1.588 -1.288,2.877 -2.876,2.877 H 6.711 c -1.857,0 -3.535,-0.75 -4.733,-1.979 C 0.749,109.164 0,107.486 0,105.629 V 6.71 C 0,4.853 0.749,3.175 1.978,1.977 3.206,0.749 4.854,0 6.711,0 h 82.292 c 1.857,0 3.535,0.749 4.733,1.978 1.228,1.228 1.977,2.875 1.977,4.733 v 58.372 c 0,1.588 -1.288,2.877 -2.876,2.877 -1.587,0 -2.876,-1.289 -2.876,-2.877 V 6.71 c 0,-0.27 -0.119,-0.479 -0.27,-0.659 -0.18,-0.18 -0.419,-0.27 -0.658,-0.27 H 6.741 c -0.27,0 -0.479,0.12 -0.659,0.27 -0.18,0.18 -0.27,0.419 -0.27,0.659 v 98.918 c 0,0.27 0.12,0.479 0.27,0.658 0.18,0.18 0.419,0.27 0.659,0.27 H 51.485 Z M 28.849,59.075 c -1.588,0 -2.876,-1.288 -2.876,-2.875 0,-1.588 1.289,-2.876 2.876,-2.876 h 38.045 c 1.588,0 2.876,1.288 2.876,2.876 0,1.587 -1.288,2.875 -2.876,2.875 z M 94.811,82.66 c -3.17,-3.17 -7.556,-5.139 -12.391,-5.139 -4.836,0 -9.222,1.969 -12.392,5.139 -3.171,3.172 -5.14,7.557 -5.14,12.393 0,4.834 1.969,9.221 5.14,12.391 3.17,3.17 7.556,5.139 12.392,5.139 4.835,0 9.221,-1.969 12.391,-5.139 3.171,-3.17 5.14,-7.557 5.14,-12.391 -10e-4,-4.836 -1.97,-9.221 -5.14,-12.393 z"
       id="path1153" />
  </g>
  <metadata
     id="metadata1211">
    <rdf:RDF>
      <cc:Work
         rdf:about="">
        <dc:title>back</dc:title>
      </cc:Work>
    </rdf:RDF>
  </metadata>
</svg>
