<?xml version="1.0" encoding="UTF-8" standalone="no"?>
<svg
   id="Layer_1"
   data-name="Layer 1"
   viewBox="0 0 495.64201 133.7752"
   version="1.1"
   sodipodi:docname="menu_button_1.svg"
   inkscape:version="1.2.2 (732a01da63, 2022-12-09)"
   inkscape:export-filename="menu_button_1.png"
   inkscape:export-xdpi="96"
   inkscape:export-ydpi="96"
   xmlns:inkscape="http://www.inkscape.org/namespaces/inkscape"
   xmlns:sodipodi="http://sodipodi.sourceforge.net/DTD/sodipodi-0.dtd"
   xmlns="http://www.w3.org/2000/svg"
   xmlns:svg="http://www.w3.org/2000/svg"
   xmlns:rdf="http://www.w3.org/1999/02/22-rdf-syntax-ns#"
   xmlns:cc="http://creativecommons.org/ns#"
   xmlns:dc="http://purl.org/dc/elements/1.1/">
  <sodipodi:namedview
     id="namedview6942"
     pagecolor="#ffffff"
     bordercolor="#000000"
     borderopacity="0.25"
     inkscape:showpageshadow="2"
     inkscape:pageopacity="0.0"
     inkscape:pagecheckerboard="0"
     inkscape:deskcolor="#d1d1d1"
     showgrid="false"
     inkscape:zoom="2.754"
     inkscape:cx="159.58606"
     inkscape:cy="66.81191"
     inkscape:window-width="2560"
     inkscape:window-height="1361"
     inkscape:window-x="2391"
     inkscape:window-y="-9"
     inkscape:window-maximized="1"
     inkscape:current-layer="Layer_1" />
  <defs
     id="defs1643">
    <style
       id="style1641">.cls-1{fill-rule:evenodd;}</style>
  </defs>
  <title
     id="title1645">back</title>
  <metadata
     id="metadata1973">
    <rdf:RDF>
      <cc:Work
         rdf:about="">
        <dc:title>back</dc:title>
      </cc:Work>
    </rdf:RDF>
  </metadata>
  <g
     id="g7187">
    <path
       d="M 495.64132,126.95119 H 0 V 5.33114e-4 h 495.64132 z"
       style="fill:#cd8215;fill-opacity:1;fill-rule:nonzero;stroke:none;stroke-width:1.33333"
       id="path167" />
    <g
       id="g179"
       transform="matrix(1.3333333,0,0,-1.3333333,464.33666,114.5992)">
      <path
         d="m 0,0 c -7.66,-0.438 -18.979,3.569 -26.382,7.4 -7.4,3.831 -13.669,10.273 -13.842,13.583 -0.174,3.308 2.787,1.307 2.787,1.307 C -29.344,17.324 -9.056,10.186 -0.348,8.966 8.359,7.749 18.719,9.489 19.327,7.487 19.937,5.486 7.663,0.436 0,0 m -48.094,39.273 c 0.115,3.675 2.069,5.97 2.069,5.97 3.219,5.66 10.586,13.551 15.809,17.817 5.224,4.266 5.658,1.044 4.005,-2.786 -1.654,-3.83 -4.092,-11.405 -3.569,-20.199 0.522,-8.793 14.105,-18.286 17.763,-21.506 3.656,-3.222 -7.313,-1.479 -15.325,2.177 -8.012,3.657 -17.994,9.106 -17.994,9.106 -3.331,2.757 -2.87,5.745 -2.758,9.421 m 24.934,8.961 c 1.656,2.002 4.44,4.005 5.748,0.958 1.305,-3.048 3.394,-8.011 4.961,-10.101 1.566,-2.089 -1.132,-3.568 -4.961,-1.826 -3.832,1.741 -6.444,4.527 -6.531,6.093 0,0 -0.873,2.873 0.783,4.876 m 8.379,7.12 c 1.047,1.655 2.96,1.827 5.398,1.218 2.439,-0.609 4.963,-2.089 3.047,-3.482 -1.915,-1.395 -7.574,-4.787 -8.533,-2.438 0,0 -0.956,3.047 0.088,4.702 m 11.705,-4.115 c 1.651,0 3.711,-4.432 -1.236,-5.876 0,0 -2.992,-0.309 -2.992,2.164 0,2.476 2.579,3.712 4.228,3.712 M 4.093,50.236 C 7.229,50.498 3.57,41.704 1.915,39.614 0.262,37.524 -5.226,34.303 -10.1,40.921 c 0,0 -1.393,1.915 0.263,2.786 1.653,0.87 4.44,-2.003 8.444,-0.261 4.005,1.741 2.348,6.53 5.486,6.79 m 15.757,-37.7 c -4.525,-0.348 -7.137,1.219 -4.265,2.787 1.926,1.051 5.062,3 7.894,5.089 v 8.372 C 21.164,24.992 15.668,19.543 10.535,16.629 3.481,12.625 -0.348,13.583 -5.834,18.545 c -5.484,4.963 -8.967,7.052 -12.623,10.708 -3.659,3.658 -4.965,7.054 -2.612,6.27 0,0 14.626,-5.574 25.248,-5.4 10.624,0.176 11.494,0.698 15.064,1.83 0,0 2.638,1.672 4.236,1.264 v 5.75 c -1.359,-3.015 -7.718,-2.839 -11.811,-3.88 -5.138,-1.307 -6.791,0 -7.575,1.132 -0.785,1.131 2.262,4.353 2.262,4.353 0.957,1.307 4.878,6.791 5.225,10.535 0.347,3.744 -2.786,4.529 -5.396,3.919 -2.614,-0.609 -7.75,1.828 -11.059,2.611 -3.309,0.785 -5.311,1.915 -0.522,5.049 4.788,3.136 11.927,4.529 17.065,0.609 5.136,-3.916 9.663,-15.148 11.752,-21.33 0.021,-0.061 0.039,-0.121 0.059,-0.181 v 9.815 c -3.332,6.608 -8.076,14.036 -12.508,16.661 -6.617,3.919 -12.364,1.306 -13.582,0.784 -1.22,-0.524 -8.707,-4.703 -13.844,-10.014 -5.137,-5.31 -8.619,-8.446 -7.488,-3.569 0,0 2.262,9.578 4.527,14.54 2.263,4.962 7.663,8.272 12.016,8.881 4.355,0.609 6.18,1.392 5.136,2.612 -1.045,1.218 -4.353,0.695 -5.746,0.695 -1.232,0 -0.965,1.978 1.165,3.76 h -5.415 c -0.943,-1.377 -2.464,-3.168 -4.773,-5.477 -8.602,-8.604 -15.409,-13.222 -19.239,-17.576 -3.832,-4.354 -8.259,-12.943 -10.556,-10.992 -0.924,0.784 -1.494,5.289 -1.266,7.93 0.231,2.641 0.945,4.169 0.945,4.169 0,0 4.759,11.422 13.687,17.503 2.682,1.827 5.357,3.284 7.855,4.443 H -348.125 V -14.382 H 23.479 v 27.6 C 22.191,12.85 20.946,12.621 19.85,12.536"
         style="fill:#f99c1b;fill-opacity:1;fill-rule:nonzero;stroke:none"
         id="path181" />
    </g>
    <g
       id="g183"
       transform="matrix(1.3333333,0,0,-1.3333333,495.64132,15.12)">
      <path
         d="M 0,0 V 11.34 H -11.106 C -7.439,8.613 -3.534,4.474 0,0"
         style="fill:#f99c1b;fill-opacity:1;fill-rule:nonzero;stroke:none"
         id="path185" />
    </g>
    <g
       id="g201"
       transform="matrix(1.3333333,0,0,-1.3333333,68.638669,86.884932)">
      <path
         d="M 0,0 C 0.366,-0.312 1.074,1.062 1.687,1.758 2.3,2.454 3.388,3.192 4.764,4.568 6.139,5.944 5.766,6.17 5.373,6.098 4.98,6.026 3.564,5.706 2.137,4.734 c -1.426,-0.973 -2.188,-2.8 -2.188,-2.8 0,0 -0.116,-0.244 -0.151,-0.666 C -0.239,0.846 -0.148,0.126 0,0"
         style="fill:#231f20;fill-opacity:1;fill-rule:nonzero;stroke:none"
         id="path203" />
    </g>
    <g
       id="g205"
       transform="matrix(1.3333333,0,0,-1.3333333,68.956399,91.586132)">
      <path
         d="M 0,0 C 0,0 1.597,-0.871 2.877,-1.455 4.158,-2.039 5.91,-2.318 5.327,-1.804 4.742,-1.288 2.57,0.229 2.487,1.635 2.403,3.042 2.793,4.252 3.059,4.865 3.322,5.477 3.253,5.992 2.417,5.311 1.582,4.628 0.405,3.366 -0.11,2.461 c 0,0 -0.313,-0.366 -0.33,-0.954 C -0.459,0.919 -0.533,0.442 0,0"
         style="fill:#231f20;fill-opacity:1;fill-rule:nonzero;stroke:none"
         id="path207" />
    </g>
    <g
       id="g209"
       transform="matrix(1.3333333,0,0,-1.3333333,74.128269,90.376532)">
      <path
         d="m 0,0 c 0,0 2.339,-0.891 4.038,-0.863 1.698,0.029 1.838,0.112 2.407,0.292 0,0 0.725,0.459 0.85,0.028 C 7.42,-0.975 6.181,-2.38 5.053,-3.021 3.926,-3.66 3.313,-3.508 2.437,-2.714 1.561,-1.921 1.003,-1.587 0.418,-1.001 -0.165,-0.418 -0.375,0.125 0,0"
         style="fill:#231f20;fill-opacity:1;fill-rule:nonzero;stroke:none"
         id="path211" />
    </g>
    <g
       id="g213"
       transform="matrix(1.3333333,0,0,-1.3333333,70.641329,93.197465)">
      <path
         d="m 0,0 c 0,0 -0.475,0.32 -0.447,-0.208 0.028,-0.53 1.032,-1.56 2.213,-2.172 1.184,-0.613 2.994,-1.253 4.218,-1.183 1.225,0.069 3.188,0.877 3.09,1.196 C 8.978,-2.046 7.321,-2.325 5.928,-2.13 4.537,-1.935 1.293,-0.793 0,0"
         style="fill:#231f20;fill-opacity:1;fill-rule:nonzero;stroke:none"
         id="path215" />
    </g>
    <g
       id="g217"
       transform="matrix(1.3333333,0,0,-1.3333333,85.636129,90.710532)">
      <path
         d="M 0,0 C 0,0 -0.389,-1.183 -0.904,-1.67 -1.42,-2.158 -2.311,-2.728 -2.77,-2.979 -3.23,-3.23 -2.813,-3.48 -2.088,-3.424 c 0.724,0.056 1.852,0.501 2.199,1.322 C 0.459,-1.281 0.404,0.766 0,0"
         style="fill:#231f20;fill-opacity:1;fill-rule:nonzero;stroke:none"
         id="path219" />
    </g>
    <g
       id="g221"
       transform="matrix(1.3333333,0,0,-1.3333333,79.974669,89.299599)">
      <path
         d="m 0,0 c 0,0 -0.487,-0.516 -0.361,-0.696 0.125,-0.181 0.389,-0.389 1.213,-0.181 0.82,0.209 2.211,0.111 1.877,1.1 C 2.395,1.211 1.672,3.006 0.852,3.633 0.028,4.26 -1.113,4.036 -1.879,3.536 -2.645,3.035 -2.324,2.854 -1.795,2.729 -1.266,2.604 -0.445,2.214 -0.027,2.311 0.391,2.408 0.892,2.283 0.836,1.684 0.781,1.085 0.154,0.209 0,0"
         style="fill:#231f20;fill-opacity:1;fill-rule:nonzero;stroke:none"
         id="path223" />
    </g>
    <g
       id="g225"
       transform="matrix(1.3333333,0,0,-1.3333333,73.516269,86.125866)">
      <path
         d="M 0,0 C 0,0 0.361,1.531 0.724,2.324 1.086,3.119 1.949,3.647 2.645,3.744 3.342,3.842 3.633,3.966 3.467,4.162 3.299,4.356 2.771,4.273 2.548,4.273 2.325,4.273 2.408,4.677 2.882,4.983 3.355,5.29 4.356,5.943 5.791,4.886 7.225,3.828 8.896,1.407 9.354,0.153 9.814,-1.1 9.201,-2.38 9.077,-2.673 8.95,-2.965 8.532,-3.034 8.172,-1.977 7.809,-0.918 6.64,1.419 5.582,2.045 4.524,2.673 3.607,2.255 3.411,2.172 3.216,2.088 2.02,1.419 1.197,0.571 0.376,-0.278 -0.181,-0.779 0,0"
         style="fill:#231f20;fill-opacity:1;fill-rule:nonzero;stroke:none"
         id="path227" />
    </g>
    <g
       id="g229"
       transform="matrix(1.3333333,0,0,-1.3333333,73.516269,88.706532)">
      <path
         d="M 0,0 C 0,0 -0.139,0.46 0.127,0.78 0.391,1.1 0.835,1.42 1.044,0.934 1.253,0.446 1.588,-0.348 1.838,-0.682 2.088,-1.016 1.657,-1.252 1.044,-0.974 0.432,-0.696 0.014,-0.25 0,0"
         style="fill:#231f20;fill-opacity:1;fill-rule:nonzero;stroke:none"
         id="path231" />
    </g>
    <g
       id="g233"
       transform="matrix(1.3333333,0,0,-1.3333333,75.451199,87.150532)">
      <path
         d="M 0,0 C 0,0 -0.153,0.487 0.014,0.751 0.181,1.016 0.487,1.044 0.877,0.946 1.267,0.849 1.67,0.612 1.363,0.39 1.057,0.167 0.152,-0.376 0,0"
         style="fill:#231f20;fill-opacity:1;fill-rule:nonzero;stroke:none"
         id="path235" />
    </g>
    <g
       id="g237"
       transform="matrix(1.3333333,0,0,-1.3333333,77.701199,88.279466)">
      <path
         d="m 0,0 c 0,0 -0.478,-0.048 -0.478,0.347 0,0.396 0.413,0.593 0.677,0.593 C 0.462,0.94 0.79,0.231 0,0"
         style="fill:#231f20;fill-opacity:1;fill-rule:nonzero;stroke:none"
         id="path239" />
    </g>
    <g
       id="g241"
       transform="matrix(1.3333333,0,0,-1.3333333,76.466799,89.226132)">
      <path
         d="M 0,0 C 0,0 -0.223,0.307 0.042,0.446 0.307,0.585 0.752,0.125 1.395,0.404 2.034,0.682 1.77,1.448 2.27,1.49 2.771,1.531 2.186,0.125 1.922,-0.208 1.656,-0.542 0.779,-1.058 0,0"
         style="fill:#231f20;fill-opacity:1;fill-rule:nonzero;stroke:none"
         id="path243" />
    </g>
    <g
       id="g245"
       transform="matrix(1.3333333,0,0,-1.3333333,42.572269,90.009332)">
      <path
         d="M 0,0 C 0,0 1.244,1.124 3.067,1.079 4.892,1.033 6.214,0.562 6.944,-0.092 7.673,-0.745 5.971,-0.41 5.423,-0.334 4.877,-0.259 2.415,-0.061 1.366,-0.213 0.317,-0.365 -0.259,-0.365 0,0"
         style="fill:#231f20;fill-opacity:1;fill-rule:nonzero;stroke:none"
         id="path247" />
    </g>
    <g
       id="g249"
       transform="matrix(1.3333333,0,0,-1.3333333,49.115329,90.941599)">
      <path
         d="M 0,0 C 0,0 -0.471,0.045 -0.531,-0.122 -0.594,-0.289 0.045,-0.698 0.715,-1.125 1.383,-1.55 1.899,-2.705 1.838,-3.724 1.777,-4.742 1.914,-5.121 2.37,-4.742 2.826,-4.361 3.146,-3.436 3.344,-3.617 3.54,-3.799 2.599,-5.471 2.052,-6.291 1.505,-7.111 0.776,-7.705 1.141,-7.947 c 0.364,-0.244 1.853,0.425 2.461,1.808 0.608,1.382 0.73,3.023 0.47,3.981 C 3.814,-1.2 2.052,-0.061 0,0"
         style="fill:#231f20;fill-opacity:1;fill-rule:nonzero;stroke:none"
         id="path251" />
    </g>
    <g
       id="g253"
       transform="matrix(1.3333333,0,0,-1.3333333,42.630929,93.413599)">
      <path
         d="M 0,0 C 0,0 0.701,1.125 1.353,1.55 2.006,1.975 2.705,1.672 3.222,1.382 3.738,1.094 4.453,0.88 4.848,0.547 5.243,0.212 4.68,0.03 3.861,0.075 3.039,0.122 1.87,0.03 1.125,-0.258 0.382,-0.547 -0.289,-0.547 0,0"
         style="fill:#231f20;fill-opacity:1;fill-rule:nonzero;stroke:none"
         id="path255" />
    </g>
    <g
       id="g257"
       transform="matrix(1.3333333,0,0,-1.3333333,40.645199,94.325065)">
      <path
         d="M 0,0 C 0,0 -0.168,0.44 0.045,1.109 0.259,1.777 0.928,2.34 1.474,2.416 2.021,2.492 2.038,2.203 1.839,1.991 1.642,1.777 1.049,1.124 0.73,0.501 0.411,-0.122 0.092,-0.289 0,0"
         style="fill:#231f20;fill-opacity:1;fill-rule:nonzero;stroke:none"
         id="path259" />
    </g>
    <g
       id="g261"
       transform="matrix(1.3333333,0,0,-1.3333333,43.237729,96.392132)">
      <path
         d="M 0,0 C 0,0 -0.471,0.698 0.094,1.094 0.654,1.49 1.658,1.899 1.764,1.596 1.871,1.291 1.491,0.698 1.505,0.106 1.521,-0.487 1.46,-1.307 0.944,-0.957 0.426,-0.608 0.077,-0.091 0,0"
         style="fill:#231f20;fill-opacity:1;fill-rule:nonzero;stroke:none"
         id="path263" />
    </g>
    <g
       id="g265"
       transform="matrix(1.3333333,0,0,-1.3333333,48.344399,94.405732)">
      <path
         d="M 0,0 C 0,0 -0.273,0.349 0.182,0.395 0.638,0.44 1.277,0.272 1.443,-0.047 1.611,-0.365 1.55,-0.76 1.293,-1.034 1.034,-1.307 0.851,-1.262 0.578,-0.867 0.305,-0.472 0,0 0,0"
         style="fill:#231f20;fill-opacity:1;fill-rule:nonzero;stroke:none"
         id="path267" />
    </g>
    <g
       id="g269"
       transform="matrix(1.3333333,0,0,-1.3333333,41.658269,98.722131)">
      <path
         d="m 0,0 c 0,0 -0.349,0.607 -0.335,1.458 0.017,0.852 0.533,0.7 0.836,0.335 0.305,-0.365 1.445,-1.96 2.129,-2.371 0.683,-0.41 1.384,-0.637 1.793,-0.516 0.41,0.122 0.243,0.425 0.516,0.836 0.274,0.41 0.866,0.774 1.155,1.2 0.29,0.426 0.76,0.973 0.79,0.243 C 6.915,0.456 6.656,-0.487 6.535,-0.714 6.413,-0.942 5.973,-1.079 5.942,-1.306 5.911,-1.535 6.003,-1.976 5.577,-2.326 5.151,-2.675 4.301,-3.587 2.948,-2.826 1.596,-2.067 0.487,-0.958 0,0"
         style="fill:#231f20;fill-opacity:1;fill-rule:nonzero;stroke:none"
         id="path271" />
    </g>
    <g
       id="g273"
       transform="matrix(1.3333333,0,0,-1.3333333,45.994129,96.290532)">
      <path
         d="M 0,0 C 0,0 -0.151,0.273 0,0.759 0.151,1.247 0.593,1.534 0.866,1.489 1.142,1.444 1.581,1.276 1.597,0.941 1.61,0.607 0.987,0.684 0.791,0.622 0.593,0.562 0.427,0.228 0.41,-0.016 0.396,-0.259 0.107,-0.167 0,0"
         style="fill:#231f20;fill-opacity:1;fill-rule:nonzero;stroke:none"
         id="path275" />
    </g>
    <g
       id="g277"
       transform="matrix(1.3333333,0,0,-1.3333333,47.930399,95.781465)">
      <path
         d="m 0,0 c -0.117,0.127 -0.368,0.053 -0.561,-0.088 -0.193,-0.141 -0.123,-0.405 -0.123,-0.405 0,0 -0.002,-0.192 0.306,-0.085 C -0.07,-0.471 0.148,-0.158 0,0"
         style="fill:#231f20;fill-opacity:1;fill-rule:nonzero;stroke:none"
         id="path279" />
    </g>
    <g
       id="g281"
       transform="matrix(1.3333333,0,0,-1.3333333,46.313199,97.361465)">
      <path
         d="M 0,0 C 0,0 0.757,0.156 1.043,0.34 1.329,0.521 1.617,0.9 1.851,0.848 2.085,0.795 2.229,0.144 1.693,-0.495 1.159,-1.133 0.105,-1.576 -0.271,-1.093 -0.65,-0.612 -0.339,-0.039 0,0"
         style="fill:#231f20;fill-opacity:1;fill-rule:nonzero;stroke:none"
         id="path283" />
    </g>
    <g
       id="g285"
       transform="matrix(1.3333333,0,0,-1.3333333,56.073599,72.749599)">
      <path
         d="m 0,0 c 0,0 -0.396,0.366 -1.35,0.838 -1.029,0.511 -2.198,0.649 -3.006,0.619 -0.81,-0.03 -0.383,0.265 -0.383,0.265 2.306,1.533 4.197,0.704 4.746,0.318 0,0 0.39,-0.225 0.472,-0.767 0.037,-0.248 0.064,-0.748 0,-1.065 C 0.418,-0.092 0.123,-0.111 0,0"
         style="fill:#231f20;fill-opacity:1;fill-rule:nonzero;stroke:none"
         id="path287" />
    </g>
    <g
       id="g289"
       transform="matrix(1.3333333,0,0,-1.3333333,44.787199,82.153866)">
      <path
         d="M 0,0 C 0,0 -0.779,1.915 -0.485,3.902 -0.191,5.89 1.43,7.671 2.356,7.788 3.283,7.906 5.404,8.097 4.902,7.583 4.402,7.066 2.282,4.27 1.987,2.18 c 0,0 -0.161,-0.826 -0.042,-2.386 0,0 0.117,-0.516 -0.236,-0.471 C 1.354,-0.633 0.235,-0.529 0,0"
         style="fill:#231f20;fill-opacity:1;fill-rule:nonzero;stroke:none"
         id="path291" />
    </g>
    <g
       id="g293"
       transform="matrix(1.3333333,0,0,-1.3333333,56.447329,75.341333)">
      <path
         d="m 0,0 c 0,0 -2.032,-0.28 -3.018,-0.619 -0.986,-0.339 -1.795,-0.795 -2.149,-0.854 -0.354,-0.058 -0.604,0.015 -0.426,0.428 0,0 0.499,1.192 1.545,1.899 1.046,0.707 1.221,1.56 1.914,1.486 C -1.442,2.267 -0.251,1.207 0,0.868 0,0.868 0.154,0.705 0.163,0.509 0.173,0.312 0.177,0.062 0,0"
         style="fill:#231f20;fill-opacity:1;fill-rule:nonzero;stroke:none"
         id="path295" />
    </g>
    <g
       id="g297"
       transform="matrix(1.3333333,0,0,-1.3333333,56.349599,81.094532)">
      <path
         d="m 0,0 c 0,0 -0.234,-0.529 -0.927,-0.278 -0.692,0.25 -0.825,0.25 -0.177,1.486 0.648,1.238 0.515,2.473 1.163,2.606 0,0 0.111,0.02 0.121,-0.143 C 0.189,3.507 0.345,0.616 0,0"
         style="fill:#231f20;fill-opacity:1;fill-rule:nonzero;stroke:none"
         id="path299" />
    </g>
    <g
       id="g301"
       transform="matrix(1.3333333,0,0,-1.3333333,56.203869,84.954666)">
      <path
         d="m 0,0 c 0,0 -0.936,-0.504 -2.645,-0.534 -1.707,-0.03 -3.635,0.678 -4.384,1.118 -0.752,0.442 -0.267,0.457 0.438,0.265 0.708,-0.191 1.843,-0.412 3.256,-0.176 1.413,0.236 2.912,1.312 3.295,1.607 0,0 0.366,0.327 0.386,-0.439 C 0.365,1.024 0.365,0.095 0,0"
         style="fill:#231f20;fill-opacity:1;fill-rule:nonzero;stroke:none"
         id="path303" />
    </g>
    <g
       id="g305"
       transform="matrix(1.3333333,0,0,-1.3333333,48.321069,82.388799)">
      <path
         d="M 0,0 C 0,0 -0.323,1.281 -0.206,2.105 -0.088,2.931 0.354,3.121 0.678,3.284 1.001,3.446 1.414,3.254 2.121,2.385 2.826,1.516 2.975,1.34 2.975,0.958 2.975,0.574 3.297,0.324 3.799,0.295 4.299,0.265 4.062,-0.147 3.342,-0.515 2.621,-0.883 0.31,-1.56 0,0"
         style="fill:#231f20;fill-opacity:1;fill-rule:nonzero;stroke:none"
         id="path307" />
    </g>
    <g
       id="g309"
       transform="matrix(1.3333333,0,0,-1.3333333,51.050129,78.108932)">
      <path
         d="M 0,0 C 0,0 -0.266,0.398 0.118,0.647 0.499,0.899 1.428,1.267 1.221,0.751 1.016,0.236 0.633,-1.325 0,0"
         style="fill:#231f20;fill-opacity:1;fill-rule:nonzero;stroke:none"
         id="path311" />
    </g>
    <g
       id="g313"
       transform="matrix(1.3333333,0,0,-1.3333333,52.322269,79.540532)">
      <path
         d="M 0,0 C 0,0 -0.031,0.411 0.174,0.615 0.378,0.82 0.427,0.513 0.592,0.348 0.759,0.181 1.209,0.197 1.382,0.189 1.556,0.181 1.286,-0.332 0.979,-0.631 0.671,-0.931 0.024,-0.639 0,0"
         style="fill:#231f20;fill-opacity:1;fill-rule:nonzero;stroke:none"
         id="path315" />
    </g>
    <g
       id="g317"
       transform="matrix(1.3333333,0,0,-1.3333333,54.027999,78.447466)">
      <path
         d="M 0,0 C 0,0 -0.376,0.098 -0.456,0.523 -0.538,0.947 -0.376,1.241 0,1.273 0.375,1.306 0.767,1.094 0.571,0.621 0.375,0.147 0.245,-0.065 0,0"
         style="fill:#231f20;fill-opacity:1;fill-rule:nonzero;stroke:none"
         id="path319" />
    </g>
    <g
       id="g321"
       transform="matrix(1.3333333,0,0,-1.3333333,57.675199,55.311333)">
      <path
         d="m 0,0 c 0,0 0.17,1.173 -1.047,1.385 -1.221,0.213 -10.889,1.694 -15.5,2.736 -4.611,1.041 -7.029,2.082 -7.346,2.212 -0.316,0.13 -0.28,0.437 -0.28,0.883 0,0.446 0.019,3.192 0.132,4.472 0.093,1.047 0.894,1.748 2.251,1.748 1.356,0 5.651,-1.022 10.581,-1.525 4.927,-0.501 9.391,-0.704 10.412,-0.706 1.494,-0.002 1.413,0.372 1.544,2.659 0.13,2.287 0.483,5.598 0.576,6.657 0.094,1.06 0.688,0.984 1.244,0.958 0.56,-0.028 3.007,-0.54 3.718,-0.711 0.711,-0.172 0.711,-0.638 0.728,-2.032 0.018,-1.395 -0.042,-4.909 0,-5.71 0.074,-1.365 0.149,-1.375 1.524,-1.338 1.377,0.038 9.309,0.428 14.83,2.129 5.524,1.703 8.034,3.236 7.645,1.87 C 30.619,14.319 29.645,11.029 29.338,8.964 29.03,6.9 29.141,6.342 27.608,5.617 26.074,4.892 18.43,2.159 12.211,1.629 L 8.278,1.238 c 0,0 -0.653,-0.076 -0.642,-0.949 C 7.646,-0.603 7.16,-31.48 7.16,-31.48 c 0,0 0.03,-1.032 -0.61,-1.06 -0.644,-0.028 -5.357,-0.056 -5.357,-0.056 0,0 -0.949,-0.139 -1.032,1.284 C 0.077,-29.89 0,0 0,0"
         style="fill:#231f20;fill-opacity:1;fill-rule:nonzero;stroke:none"
         id="path323" />
    </g>
    <text
       xml:space="preserve"
       style="font-style:normal;font-variant:normal;font-weight:bold;font-stretch:normal;font-size:85.3333px;font-family:'맑은 고딕';-inkscape-font-specification:'맑은 고딕 Bold';fill:#000000"
       x="101.16397"
       y="96.346527"
       id="text2037"><tspan
         id="tspan2035"
         x="101.16397"
         y="96.346527"
         style="font-size:85.3333px">공지</tspan></text>
  </g>
</svg>
