<?xml version="1.0" encoding="UTF-8" standalone="no"?>
<!-- Created with Inkscape (http://www.inkscape.org/) -->

<svg
   viewBox="0 0 107.9377 70.961716"
   version="1.1"
   id="svg8193"
   inkscape:version="1.2.2 (732a01da63, 2022-12-09)"
   sodipodi:docname="sub_menu_button_1-2.svg"
   xmlns:inkscape="http://www.inkscape.org/namespaces/inkscape"
   xmlns:sodipodi="http://sodipodi.sourceforge.net/DTD/sodipodi-0.dtd"
   xmlns="http://www.w3.org/2000/svg"
   xmlns:svg="http://www.w3.org/2000/svg">
  <sodipodi:namedview
     id="namedview8195"
     pagecolor="#ffffff"
     bordercolor="#000000"
     borderopacity="0.25"
     inkscape:showpageshadow="2"
     inkscape:pageopacity="0.0"
     inkscape:pagecheckerboard="0"
     inkscape:deskcolor="#d1d1d1"
     inkscape:document-units="mm"
     showgrid="false"
     inkscape:zoom="0.914906"
     inkscape:cx="28.964724"
     inkscape:cy="296.7518"
     inkscape:window-width="1517"
     inkscape:window-height="1246"
     inkscape:window-x="3167"
     inkscape:window-y="160"
     inkscape:window-maximized="0"
     inkscape:current-layer="layer1" />
  <defs
     id="defs8190">
    <pattern
       id="EMFhbasepattern"
       patternUnits="userSpaceOnUse"
       width="6"
       height="6"
       x="0"
       y="0" />
  </defs>
  <g
     inkscape:label="레이어 1"
     inkscape:groupmode="layer"
     id="layer1"
     transform="translate(-96.98928,-70.074158)">
    <path
       style="fill:#ed7d31;fill-opacity:1;fill-rule:evenodd;stroke:none;stroke-width:0.264583"
       d="m 114.02685,88.204513 h 63.72944 V 70.858979 l 26.83292,34.691071 -26.83292,34.701 v -17.35547 h -63.72944 z"
       id="path8200" />
    <path
       style="fill:#ffffff;fill-opacity:1;fill-rule:evenodd;stroke:none;stroke-width:0.264583"
       d="m 114.02685,87.936284 v 0.268229 h -0.26823 v -0.268229 z"
       id="path8202" />
    <path
       style="fill:#ffffff;fill-opacity:1;fill-rule:evenodd;stroke:none;stroke-width:0.264583"
       d="m 114.02685,88.472743 v -0.26823 -0.268229 h 63.72944 v 0.268229 0.26823 z"
       id="path8204" />
    <path
       style="fill:#ffffff;fill-opacity:1;fill-rule:evenodd;stroke:none;stroke-width:0.264583"
       d="m 177.75629,88.472743 v -0.26823 h 0.26823 v 0.26823 z"
       id="path8206" />
    <path
       style="fill:#ffffff;fill-opacity:1;fill-rule:evenodd;stroke:none;stroke-width:0.264583"
       d="m 178.02452,88.204513 h -0.26823 -0.26823 V 70.858979 h 0.26823 0.26823 z"
       id="path8208" />
    <path
       style="fill:#ffffff;fill-opacity:1;fill-rule:evenodd;stroke:none;stroke-width:0.264583"
       d="m 177.96491,70.690094 -0.20862,0.168885 h -0.26823 v -0.784821 z"
       id="path8210" />
    <path
       style="fill:#ffffff;fill-opacity:1;fill-rule:evenodd;stroke:none;stroke-width:0.264583"
       d="m 177.54766,71.027865 0.20863,-0.168886 0.20862,-0.168885 26.83292,34.691066 -0.20862,0.16889 -0.20862,0.16888 z"
       id="path8212" />
    <path
       style="fill:#ffffff;fill-opacity:1;fill-rule:evenodd;stroke:none;stroke-width:0.264583"
       d="m 204.79783,105.71893 -0.20862,-0.16888 0.20862,-0.16889 0.12915,0.16889 z"
       id="path8214" />
    <path
       style="fill:#ffffff;fill-opacity:1;fill-rule:evenodd;stroke:none;stroke-width:0.264583"
       d="m 204.38059,105.38116 0.20862,0.16889 0.20862,0.16888 -26.83292,34.701 -0.20862,-0.16888 -0.20863,-0.16889 z"
       id="path8216" />
    <path
       style="fill:#ffffff;fill-opacity:1;fill-rule:evenodd;stroke:none;stroke-width:0.264583"
       d="m 177.48806,140.25105 h 0.26823 l 0.20862,0.16888 -0.47685,0.61594 z"
       id="path8218" />
    <path
       style="fill:#ffffff;fill-opacity:1;fill-rule:evenodd;stroke:none;stroke-width:0.264583"
       d="m 178.02452,140.25105 h -0.26823 -0.26823 v -17.35547 h 0.26823 0.26823 z"
       id="path8220" />
    <path
       style="fill:#ffffff;fill-opacity:1;fill-rule:evenodd;stroke:none;stroke-width:0.264583"
       d="m 178.02452,122.89558 h -0.26823 v -0.26823 h 0.26823 z"
       id="path8222" />
    <path
       style="fill:#ffffff;fill-opacity:1;fill-rule:evenodd;stroke:none;stroke-width:0.264583"
       d="m 177.75629,122.62735 v 0.26823 0.26823 h -63.72944 v -0.26823 -0.26823 z"
       id="path8224" />
    <path
       style="fill:#ffffff;fill-opacity:1;fill-rule:evenodd;stroke:none;stroke-width:0.264583"
       d="m 113.75862,122.89558 h 0.26823 v 0.26823 h -0.26823 z"
       id="path8226" />
    <path
       style="fill:#ffffff;fill-opacity:1;fill-rule:evenodd;stroke:none;stroke-width:0.264583"
       d="m 114.29508,122.89558 h -0.26823 -0.26823 V 88.204513 h 0.26823 0.26823 z"
       id="path8228" />
    <path
       style="fill:#ed7d31;fill-opacity:1;fill-rule:evenodd;stroke:none;stroke-width:0.264583"
       d="m 97.25751,88.204513 h 3.34791 v 34.691067 h -3.34791 z"
       id="path8230" />
    <path
       style="fill:#ffffff;fill-opacity:1;fill-rule:evenodd;stroke:none;stroke-width:0.264583"
       d="m 97.25751,87.936284 v 0.268229 h -0.26823 v -0.268229 z"
       id="path8232" />
    <path
       style="fill:#ffffff;fill-opacity:1;fill-rule:evenodd;stroke:none;stroke-width:0.264583"
       d="m 97.25751,88.472743 v -0.26823 -0.268229 h 3.34791 v 0.268229 0.26823 z"
       id="path8234" />
    <path
       style="fill:#ffffff;fill-opacity:1;fill-rule:evenodd;stroke:none;stroke-width:0.264583"
       d="m 100.87365,88.204513 h -0.26823 v -0.268229 h 0.26823 z"
       id="path8236" />
    <path
       style="fill:#ffffff;fill-opacity:1;fill-rule:evenodd;stroke:none;stroke-width:0.264583"
       d="m 100.33719,88.204513 h 0.26823 0.26823 v 34.691067 h -0.26823 -0.26823 z"
       id="path8238" />
    <path
       style="fill:#ffffff;fill-opacity:1;fill-rule:evenodd;stroke:none;stroke-width:0.264583"
       d="m 100.60542,123.16381 v -0.26823 h 0.26823 v 0.26823 z"
       id="path8240" />
    <path
       style="fill:#ffffff;fill-opacity:1;fill-rule:evenodd;stroke:none;stroke-width:0.264583"
       d="m 100.60542,122.62735 v 0.26823 0.26823 h -3.34791 v -0.26823 -0.26823 z"
       id="path8242" />
    <path
       style="fill:#ffffff;fill-opacity:1;fill-rule:evenodd;stroke:none;stroke-width:0.264583"
       d="m 96.98928,122.89558 h 0.26823 v 0.26823 h -0.26823 z"
       id="path8244" />
    <path
       style="fill:#ffffff;fill-opacity:1;fill-rule:evenodd;stroke:none;stroke-width:0.264583"
       d="M 97.52574,122.89558 H 97.25751 96.98928 V 88.204513 h 0.26823 0.26823 z"
       id="path8246" />
    <path
       style="fill:#ed7d31;fill-opacity:1;fill-rule:evenodd;stroke:none;stroke-width:0.264583"
       d="m 103.96326,88.204513 h 6.70575 v 34.691067 h -6.70575 z"
       id="path8248" />
    <path
       style="fill:#ffffff;fill-opacity:1;fill-rule:evenodd;stroke:none;stroke-width:0.264583"
       d="m 103.96326,87.936284 v 0.268229 h -0.26823 v -0.268229 z"
       id="path8250" />
    <path
       style="fill:#ffffff;fill-opacity:1;fill-rule:evenodd;stroke:none;stroke-width:0.264583"
       d="m 103.96326,88.472743 v -0.26823 -0.268229 h 6.70575 v 0.268229 0.26823 z"
       id="path8252" />
    <path
       style="fill:#ffffff;fill-opacity:1;fill-rule:evenodd;stroke:none;stroke-width:0.264583"
       d="m 110.93724,88.204513 h -0.26823 v -0.268229 h 0.26823 z"
       id="path8254" />
    <path
       style="fill:#ffffff;fill-opacity:1;fill-rule:evenodd;stroke:none;stroke-width:0.264583"
       d="m 110.40078,88.204513 h 0.26823 0.26823 v 34.691067 h -0.26823 -0.26823 z"
       id="path8256" />
    <path
       style="fill:#ffffff;fill-opacity:1;fill-rule:evenodd;stroke:none;stroke-width:0.264583"
       d="m 110.66901,123.16381 v -0.26823 h 0.26823 v 0.26823 z"
       id="path8258" />
    <path
       style="fill:#ffffff;fill-opacity:1;fill-rule:evenodd;stroke:none;stroke-width:0.264583"
       d="m 110.66901,122.62735 v 0.26823 0.26823 h -6.70575 v -0.26823 -0.26823 z"
       id="path8260" />
    <path
       style="fill:#ffffff;fill-opacity:1;fill-rule:evenodd;stroke:none;stroke-width:0.264583"
       d="m 103.69503,122.89558 h 0.26823 v 0.26823 h -0.26823 z"
       id="path8262" />
    <path
       style="fill:#ffffff;fill-opacity:1;fill-rule:evenodd;stroke:none;stroke-width:0.264583"
       d="m 104.23149,122.89558 h -0.26823 -0.26823 V 88.204513 h 0.26823 0.26823 z"
       id="path8264" />
    <text
       xml:space="preserve"
       style="font-weight:bold;font-size:11.2889px;font-family:'맑은 고딕';-inkscape-font-specification:'맑은 고딕 Bold';fill:#008d84;stroke-width:0.264583"
       x="115.21446"
       y="102.78982"
       id="text8353"><tspan
         sodipodi:role="line"
         id="tspan8351"
         style="font-size:11.2889px;fill:#000000;stroke-width:0.264583"
         x="115.21446"
         y="102.78982">스크린 주간</tspan><tspan
         sodipodi:role="line"
         style="font-size:11.2889px;fill:#000000;stroke-width:0.264583"
         x="115.21446"
         y="116.90094"
         id="tspan8464">공지사항(영상)</tspan></text>
  </g>
</svg>
